<svg width="165" height="135" viewBox="0 0 165 135" fill="none" xmlns="http://www.w3.org/2000/svg">
<path d="M164.17 12.63V30.02C164.17 30.91 164.14 31.74 164.09 32.49C164 33.8 163.83 34.92 163.57 35.89C163.26 37.06 162.83 37.99 162.27 38.74C162.24 38.79 162.2 38.84 162.16 38.88C160.56 40.9 157.98 41.47 154.29 41.47H127.95C125.76 41.47 123.95 41.27 122.52 40.68C122.48 40.66 122.44 40.65 122.41 40.63C119.94 39.58 118.57 37.34 118.19 32.94C118.19 32.92 118.19 32.91 118.19 32.9C118.11 32.03 118.08 31.07 118.08 30.02V12.63C118.08 4.89997 120.62 0.0999756 127.86 0.0999756H154.39C161.63 0.0999756 164.18 4.88997 164.18 12.63H164.17Z" fill="black"/>
<path d="M109.71 12.53V30.45C109.71 38.6 105.41 41.37 99.8899 41.37C99.8899 41.37 70.3699 41.42 68.4299 41.37C44.9199 40.78 46.5499 54.63 46.5499 69.09C46.5499 76.1 46.6 81.63 46.6 86C46.6 106.83 58.7799 110.46 60.6799 111.35C64.9299 113.22 72.0699 112.39 73.6399 112.61C76.1799 112.98 78.5399 113.37 78.5399 116.89V129.24C78.5399 130.58 78.1999 131.55 77.6399 132.26C77.5799 132.34 77.53 132.4 77.46 132.47C76.31 133.73 74.4299 134.11 72.6899 134.11H65.21C50.53 133.71 37.0299 128.59 26.1699 120.22C15.5599 112.05 7.47 100.77 3.25 87.75C1.14 81.24 0 74.29 0 67.07C0 50.31 6.13994 34.99 16.3099 23.23C26.2799 11.7 40.0999 3.61 55.7699 0.949997C56.3799 0.839997 56.99 0.750004 57.61 0.660004C60.7 0.230004 63.8599 0 67.0699 0H99.3199C100.44 0 102.05 0.109996 102.95 0.339996C106.42 1.19 108.35 3.63 109.19 7.28C109.55 8.82 109.71 10.58 109.71 12.53Z" fill="black"/>
<path d="M97.21 68.11V54C97.21 51.65 99.12 49.74 101.47 49.74H159.97C162.32 49.74 164.23 51.65 164.23 54V87.98C164.23 103.5 168.64 134.11 135.51 134.11H91.1599C88.8099 134.11 86.8999 132.2 86.8999 129.85V116.86C86.8999 114.51 88.8099 112.6 91.1599 112.6L110.11 112.58C121.71 112.58 130.03 102.7 130.03 93.43C130.03 93.43 131.26 69.65 101.32 72.36C99.0399 72.57 97.21 70.4 97.21 68.1V68.11Z" fill="black"/>
</svg>
