<svg width="444" height="135" viewBox="0 0 444 135" fill="none" xmlns="http://www.w3.org/2000/svg">
<path d="M234.96 13.02C234.96 12.59 235.31 12.24 235.74 12.24H262.59C272.69 12.24 277.18 16.04 277.18 26.43V34.08C277.18 44.08 273.99 48.8 263.9 48.8H235.75C235.32 48.8 234.97 48.45 234.97 48.02V13.02H234.96ZM244.62 40.05C244.62 40.48 244.97 40.83 245.4 40.83H262.39C265.96 40.83 267.22 38.44 267.22 34.59V25.92C267.22 21.19 265.72 20.22 262.34 20.22H245.4C244.97 20.22 244.62 20.57 244.62 21V40.04V40.05Z" fill="white"/>
<path d="M294.19 21.01V25.74C294.19 26.17 294.54 26.53 294.97 26.52L314.11 26.44C314.54 26.44 314.89 26.79 314.89 27.22V33.65C314.89 34.08 314.54 34.43 314.12 34.43L294.97 34.51C294.54 34.51 294.2 34.86 294.2 35.29V40.04C294.2 40.47 294.55 40.82 294.98 40.82H325.81C326.24 40.82 326.59 41.17 326.59 41.6V48C326.59 48.43 326.24 48.78 325.81 48.78H285.31C284.88 48.78 284.53 48.43 284.53 48V13C284.53 12.57 284.88 12.22 285.31 12.22H325.81C326.24 12.22 326.59 12.57 326.59 13V19.42C326.59 19.85 326.24 20.2 325.81 20.2H294.98C294.55 20.2 294.2 20.55 294.2 20.98L294.19 21.01Z" fill="white"/>
<path d="M349.28 12.62L364.15 37.87C364.55 38.56 365.59 38.27 365.59 37.47V13.02C365.59 12.59 365.94 12.24 366.37 12.24H374.59C375.02 12.24 375.37 12.59 375.37 13.02V48.02C375.37 48.45 375.02 48.8 374.59 48.8H359.93C359.65 48.8 359.4 48.65 359.26 48.41L344.54 23.19C344.14 22.5 343.09 22.79 343.09 23.59V48.01C343.09 48.44 342.74 48.79 342.31 48.79H334.09C333.66 48.79 333.31 48.44 333.31 48.01V13.01C333.31 12.58 333.66 12.23 334.09 12.23H348.6C348.87 12.23 349.13 12.38 349.27 12.61L349.28 12.62Z" fill="white"/>
<path d="M383.61 48.03V13.03C383.61 12.6 383.96 12.25 384.39 12.25H392.5C392.93 12.25 393.28 12.6 393.28 13.03V48.03C393.28 48.46 392.93 48.81 392.5 48.81H384.39C383.96 48.81 383.61 48.46 383.61 48.03Z" fill="white"/>
<path d="M438.76 40.47L442.94 47.62C443.25 48.14 442.87 48.8 442.27 48.8H433.11C432.83 48.8 432.58 48.65 432.44 48.41L428.29 41.22C428.15 40.98 427.9 40.83 427.62 40.83H412.02C411.59 40.83 411.24 41.18 411.24 41.61V48C411.24 48.43 410.89 48.78 410.46 48.78H402.35C401.92 48.78 401.57 48.43 401.57 48V13C401.57 12.57 401.92 12.22 402.35 12.22H431.26C438.48 12.22 442.09 14.4 443.22 20.22C443.5 21.64 443.63 24.51 443.63 26.28C443.63 28.05 443.54 30.75 443.3 32.3C442.77 35.76 441.53 38.06 439.04 39.39C438.66 39.6 438.53 40.09 438.75 40.47H438.76ZM412.02 32.36H432.9C433.33 32.36 433.68 32.01 433.68 31.58V21.02C433.68 20.59 433.33 20.24 432.9 20.24H412.02C411.59 20.24 411.24 20.59 411.24 21.02V31.58C411.24 32.01 411.59 32.36 412.02 32.36Z" fill="white"/>
<path d="M227.59 25.84C227.59 25.41 227.24 25.06 226.81 25.06H218.41C217.98 25.06 217.63 25.41 217.63 25.84C217.63 26.04 217.63 26.25 217.63 26.46V35.13C217.63 39.86 216.13 40.83 212.75 40.83H199.75C196.37 40.83 194.87 39.85 194.87 35.13V26.46C194.87 22.61 196.13 20.22 199.7 20.22C199.7 20.22 209.51 20.22 212.38 20.22C212.81 20.22 213.16 19.87 213.16 19.44V13.02C213.16 12.59 212.81 12.24 212.38 12.24H198.2C188.11 12.24 184.92 16.97 184.92 26.97V34.62C184.92 45 189.41 48.81 199.51 48.81H212.99C223.08 48.81 227.58 45 227.58 34.62V25.84H227.59Z" fill="white"/>
<path d="M227.63 14.66V18.02C227.63 18.19 227.63 18.35 227.61 18.5C227.59 18.75 227.55 18.97 227.5 19.16C227.43 19.38 227.34 19.57 227.22 19.71C227.22 19.71 227.2 19.73 227.19 19.74C227.01 19.95 226.77 20.07 226.46 20.15C226.19 20.22 225.86 20.24 225.49 20.24H219.79C219.31 20.24 218.92 20.2 218.61 20.09C218.61 20.09 218.59 20.09 218.58 20.09C218.05 19.89 217.75 19.46 217.67 18.61C217.65 18.43 217.65 18.25 217.65 18.05V14.69C217.65 14.15 217.72 13.69 217.89 13.31C218.18 12.65 218.77 12.27 219.77 12.27H225.52C227.09 12.27 227.64 13.19 227.64 14.69L227.63 14.66Z" fill="white"/>
<path d="M194.86 75.24V83.88C194.86 88.61 196.35 89.58 199.73 89.58H216.48C216.91 89.58 217.26 89.23 217.26 88.8V84.06C217.26 83.63 216.91 83.28 216.48 83.28H206.69C206.26 83.28 205.91 82.93 205.91 82.5V76.08C205.91 75.65 206.26 75.3 206.69 75.3H226.13C226.56 75.3 226.91 75.65 226.91 76.08V96.78C226.91 97.21 226.56 97.56 226.13 97.56H199.49C189.41 97.56 184.93 93.76 184.93 83.38V75.73C184.93 65.74 188.11 61.01 198.19 61.01H226.13C226.56 61.01 226.91 61.36 226.91 61.79V68.22C226.91 68.65 226.56 69 226.13 69H199.69C196.12 69 194.87 71.39 194.87 75.24H194.86Z" fill="white"/>
<path d="M335.42 61.82V96.76C335.42 97.19 335.07 97.54 334.64 97.54H326.55C326.12 97.54 325.77 97.19 325.77 96.76V72.68C325.77 71.86 324.69 71.59 324.31 72.32L311.37 97.13C311.24 97.39 310.97 97.55 310.68 97.55H308.77C308.48 97.55 308.22 97.39 308.08 97.13L295.14 72.32C294.76 71.6 293.68 71.87 293.68 72.68V96.76C293.68 97.19 293.33 97.54 292.9 97.54H284.81C284.38 97.54 284.03 97.19 284.03 96.76V61.82C284.03 61.39 284.38 61.04 284.81 61.04H299.08C299.37 61.04 299.64 61.2 299.77 61.46L309.03 79.54C309.32 80.1 310.12 80.1 310.41 79.54L319.67 61.46C319.8 61.2 320.07 61.04 320.36 61.04H334.63C335.06 61.04 335.41 61.39 335.41 61.82H335.42Z" fill="white"/>
<path d="M353.25 69.79V74.51C353.25 74.94 353.6 75.29 354.03 75.29H373.09C373.52 75.29 373.87 75.64 373.87 76.07V82.49C373.87 82.92 373.52 83.27 373.09 83.27H354.03C353.6 83.27 353.25 83.62 353.25 84.05V88.79C353.25 89.22 353.6 89.57 354.03 89.57H384.81C385.24 89.57 385.59 89.92 385.59 90.35V96.74C385.59 97.17 385.24 97.52 384.81 97.52H344.39C343.96 97.52 343.61 97.17 343.61 96.74V61.8C343.61 61.37 343.96 61.02 344.39 61.02H384.81C385.24 61.02 385.59 61.37 385.59 61.8V68.2C385.59 68.63 385.24 68.98 384.81 68.98H354.03C353.6 68.98 353.25 69.33 353.25 69.76V69.79Z" fill="white"/>
<path d="M433.77 84.38C433.77 88.65 433.25 90.2 432.98 91.1C432.2 93.67 430.59 95.63 427.87 96.62C426.55 97.1 424.33 97.53 421.43 97.53H392.47C392.1 97.53 391.8 97.23 391.8 96.85V90.22C391.8 89.85 392.1 89.54 392.47 89.54H419.71C423.37 89.54 424.14 87.3 424.15 84.39V83.44C424.15 83.07 423.84 82.77 423.47 82.77H392.54C392.17 82.77 391.87 82.46 391.87 82.09L391.81 74.14C391.81 69.87 392.33 68.32 392.6 67.42C393.38 64.85 394.99 62.89 397.71 61.9C399.03 61.42 401.25 60.99 404.15 60.99L433.11 61.05C433.48 61.05 433.78 61.35 433.78 61.73V68.36C433.78 68.73 433.48 69.04 433.11 69.04L405.89 68.98C402.17 68.98 401.46 71.22 401.45 74.13C401.45 74.5 401.75 74.8 402.12 74.8H433.05C433.42 74.8 433.72 75.11 433.72 75.48L433.79 84.39L433.77 84.38Z" fill="white"/>
<path d="M276.66 74.61C276.66 74.18 276.31 73.83 275.88 73.83H267.5C267.07 73.83 266.73 74.18 266.73 74.61C266.73 74.81 266.73 75.02 266.73 75.23V83.88C266.73 88.6 265.23 89.57 261.86 89.57H248.88C245.5 89.57 244.01 88.6 244.01 83.88V75.23C244.01 71.39 245.26 69 248.83 69C248.83 69 258.63 69 261.49 69C261.92 69 262.26 68.65 262.26 68.22V61.82C262.26 61.39 261.91 61.04 261.48 61.04H247.33C237.25 61.04 234.07 65.76 234.07 75.74V83.38C234.07 93.74 238.55 97.54 248.63 97.54H262.09C272.17 97.54 276.65 93.74 276.65 83.38V74.62L276.66 74.61Z" fill="white"/>
<path d="M276.7 63.45V66.8C276.7 66.97 276.7 67.13 276.68 67.28C276.66 67.53 276.62 67.75 276.57 67.93C276.5 68.15 276.41 68.34 276.29 68.48C276.29 68.48 276.27 68.5 276.26 68.51C276.08 68.71 275.84 68.84 275.53 68.92C275.26 68.99 274.93 69.01 274.56 69.01H268.87C268.39 69.01 268.01 68.97 267.7 68.86C267.7 68.86 267.68 68.86 267.67 68.86C267.14 68.66 266.84 68.23 266.76 67.38C266.74 67.2 266.74 67.02 266.74 66.82V63.47C266.74 62.93 266.81 62.47 266.98 62.09C267.27 61.43 267.86 61.05 268.86 61.05H274.6C276.16 61.05 276.72 61.97 276.72 63.46L276.7 63.45Z" fill="white"/>
<path d="M192.57 118.46C192.57 119.53 192.19 120.37 191.43 120.99C190.67 121.6 189.61 121.91 188.25 121.91C187.07 121.91 186.01 121.7 185.09 121.27C184.99 121.23 184.93 121.13 184.93 121.02V119.27C184.93 119.08 185.13 118.95 185.3 119.03C185.93 119.3 186.48 119.5 186.94 119.62C187.49 119.77 187.99 119.84 188.44 119.84C188.99 119.84 189.4 119.73 189.69 119.52C189.98 119.31 190.13 119 190.13 118.58C190.13 118.35 190.07 118.14 189.94 117.96C189.81 117.78 189.62 117.61 189.37 117.44C189.12 117.27 188.61 117.01 187.85 116.64C187.13 116.3 186.6 115.97 186.24 115.66C185.88 115.35 185.6 114.98 185.38 114.57C185.17 114.15 185.06 113.67 185.06 113.11C185.06 112.06 185.41 111.24 186.11 110.64C186.81 110.04 187.78 109.74 189.03 109.74C189.64 109.74 190.22 109.81 190.77 109.96C191.25 110.09 191.74 110.26 192.26 110.47C192.4 110.53 192.46 110.69 192.4 110.82L191.8 112.28C191.74 112.42 191.59 112.48 191.45 112.42C190.93 112.21 190.5 112.07 190.14 111.98C189.73 111.88 189.33 111.83 188.93 111.83C188.46 111.83 188.1 111.94 187.85 112.16C187.6 112.38 187.47 112.67 187.47 113.03C187.47 113.25 187.52 113.44 187.62 113.61C187.72 113.77 187.88 113.93 188.11 114.09C188.33 114.24 188.86 114.52 189.69 114.92C190.79 115.45 191.54 115.98 191.94 116.51C192.35 117.04 192.55 117.69 192.55 118.47L192.57 118.46Z" fill="white"/>
<path d="M205.34 115.81C205.34 117.77 204.86 119.28 203.9 120.33C202.94 121.38 201.56 121.91 199.76 121.91C197.96 121.91 196.58 121.38 195.62 120.33C194.66 119.28 194.18 117.77 194.18 115.8C194.18 113.83 194.66 112.33 195.63 111.29C196.6 110.25 197.98 109.73 199.78 109.73C201.58 109.73 202.96 110.25 203.91 111.3C204.86 112.35 205.34 113.85 205.34 115.82V115.81ZM196.78 115.81C196.78 117.13 197.03 118.13 197.53 118.8C198.03 119.47 198.77 119.8 199.76 119.8C201.74 119.8 202.74 118.47 202.74 115.81C202.74 113.15 201.75 111.81 199.78 111.81C198.79 111.81 198.04 112.15 197.54 112.82C197.04 113.49 196.79 114.49 196.79 115.81H196.78Z" fill="white"/>
<path d="M207.77 121.48V110.18C207.77 110.03 207.89 109.91 208.04 109.91H210C210.15 109.91 210.27 110.03 210.27 110.18V119.41C210.27 119.56 210.39 119.68 210.54 119.68H214.77C214.92 119.68 215.04 119.8 215.04 119.95V121.49C215.04 121.64 214.92 121.76 214.77 121.76H208.06C207.91 121.76 207.79 121.64 207.79 121.49L207.77 121.48Z" fill="white"/>
<path d="M226.33 109.91C226.48 109.91 226.6 110.03 226.6 110.18V117.57C226.6 118.44 226.41 119.21 226.02 119.87C225.63 120.53 225.07 121.03 224.34 121.38C223.61 121.73 222.74 121.91 221.74 121.91C220.23 121.91 219.06 121.52 218.23 120.74C217.4 119.96 216.98 118.89 216.98 117.54V110.18C216.98 110.03 217.1 109.91 217.25 109.91H219.2C219.35 109.91 219.47 110.03 219.47 110.18V117.16C219.47 118.07 219.65 118.74 220.02 119.17C220.38 119.6 220.98 119.81 221.82 119.81C222.66 119.81 223.22 119.6 223.59 119.17C223.96 118.74 224.14 118.07 224.14 117.15V110.19C224.14 110.04 224.26 109.92 224.41 109.92H226.36L226.33 109.91Z" fill="white"/>
<path d="M234.44 111.83C233.5 111.83 232.78 112.18 232.27 112.89C231.76 113.6 231.5 114.59 231.5 115.86C231.5 118.5 232.48 119.82 234.44 119.82C235.18 119.82 236.06 119.65 237.08 119.32C237.25 119.26 237.43 119.39 237.43 119.57V121.12C237.43 121.23 237.36 121.33 237.26 121.37C236.34 121.73 235.32 121.91 234.21 121.91C232.5 121.91 231.2 121.39 230.3 120.34C229.4 119.3 228.94 117.8 228.94 115.84C228.94 114.61 229.16 113.53 229.61 112.61C230.06 111.69 230.69 110.97 231.52 110.48C232.35 109.99 233.33 109.74 234.44 109.74C235.55 109.74 236.57 109.98 237.64 110.46C237.77 110.52 237.83 110.67 237.78 110.81L237.17 112.35C237.11 112.49 236.95 112.55 236.82 112.49C236.46 112.33 236.11 112.18 235.75 112.06C235.31 111.9 234.87 111.83 234.44 111.83ZM235.68 123.77C235.68 124.46 235.48 124.96 235.07 125.27C234.67 125.58 234.04 125.73 233.2 125.73C232.86 125.73 232.53 125.69 232.23 125.62C232.11 125.59 232.03 125.48 232.03 125.36V124.21C232.17 124.25 232.37 124.29 232.61 124.32C232.85 124.36 233.04 124.38 233.18 124.38C233.57 124.38 233.76 124.21 233.76 123.88C233.76 123.49 233.43 123.22 232.76 123.07C232.59 123.03 232.51 122.84 232.59 122.69L232.98 121.91C233.03 121.82 233.12 121.76 233.22 121.76H234.61L234.39 122.25C234.79 122.38 235.1 122.58 235.34 122.85C235.58 123.12 235.69 123.43 235.69 123.78L235.68 123.77Z" fill="white"/>
<path d="M250.57 115.81C250.57 117.77 250.09 119.28 249.13 120.33C248.17 121.38 246.79 121.91 244.99 121.91C243.19 121.91 241.81 121.38 240.85 120.33C239.89 119.28 239.41 117.77 239.41 115.8C239.41 113.83 239.89 112.33 240.86 111.29C241.83 110.25 243.21 109.73 245.01 109.73C246.81 109.73 248.19 110.25 249.14 111.3C250.09 112.35 250.57 113.85 250.57 115.82V115.81ZM243.68 108.11C243.51 108.11 243.36 108.18 243.2 108.32C243.12 108.39 243.06 108.48 243 108.59C242.89 108.81 242.68 108.97 242.43 108.97H242.41C241.99 108.97 241.7 108.56 241.81 108.15C241.92 107.74 242.1 107.4 242.33 107.13C242.71 106.69 243.22 106.47 243.85 106.47C244.07 106.47 244.28 106.51 244.5 106.6C244.71 106.69 244.92 106.79 245.13 106.89C245.34 107 245.54 107.09 245.74 107.18C245.94 107.27 246.13 107.31 246.33 107.31C246.5 107.31 246.65 107.24 246.81 107.1C246.89 107.03 246.95 106.94 247.01 106.83C247.12 106.61 247.33 106.45 247.58 106.45H247.6C248.02 106.45 248.32 106.86 248.2 107.27C248.08 107.68 247.91 108.01 247.67 108.29C247.28 108.73 246.78 108.95 246.16 108.95C245.94 108.95 245.73 108.91 245.51 108.82C245.3 108.73 245.09 108.63 244.88 108.53C244.67 108.42 244.47 108.33 244.27 108.24C244.07 108.15 243.88 108.11 243.68 108.11ZM242.01 115.81C242.01 117.13 242.26 118.13 242.76 118.8C243.26 119.47 244 119.8 244.99 119.8C246.97 119.8 247.97 118.47 247.97 115.81C247.97 113.15 246.98 111.81 245.01 111.81C244.02 111.81 243.27 112.15 242.77 112.82C242.27 113.49 242.02 114.49 242.02 115.81H242.01Z" fill="white"/>
<path d="M259.49 121.74H253.27C253.12 121.74 253 121.62 253 121.47V110.17C253 110.02 253.12 109.9 253.27 109.9H259.49C259.64 109.9 259.76 110.02 259.76 110.17V111.69C259.76 111.84 259.64 111.96 259.49 111.96H255.75C255.6 111.96 255.48 112.08 255.48 112.23V114.29C255.48 114.44 255.6 114.56 255.75 114.56H259.19C259.34 114.56 259.46 114.68 259.46 114.83V116.35C259.46 116.5 259.34 116.62 259.19 116.62H255.75C255.6 116.62 255.48 116.74 255.48 116.89V119.41C255.48 119.56 255.6 119.68 255.75 119.68H259.49C259.64 119.68 259.76 119.8 259.76 119.95V121.49C259.76 121.64 259.64 121.76 259.49 121.76V121.74Z" fill="white"/>
<path d="M269.12 118.46C269.12 119.53 268.74 120.37 267.98 120.99C267.22 121.6 266.16 121.91 264.8 121.91C263.62 121.91 262.56 121.7 261.64 121.27C261.54 121.23 261.48 121.13 261.48 121.02V119.27C261.48 119.08 261.68 118.95 261.85 119.03C262.48 119.3 263.03 119.5 263.49 119.62C264.04 119.77 264.54 119.84 264.99 119.84C265.54 119.84 265.95 119.73 266.24 119.52C266.53 119.31 266.68 119 266.68 118.58C266.68 118.35 266.62 118.14 266.49 117.96C266.36 117.78 266.17 117.61 265.92 117.44C265.67 117.27 265.16 117.01 264.4 116.64C263.68 116.3 263.15 115.97 262.79 115.66C262.43 115.35 262.15 114.98 261.93 114.57C261.72 114.15 261.61 113.67 261.61 113.11C261.61 112.06 261.96 111.24 262.66 110.64C263.36 110.04 264.33 109.74 265.58 109.74C266.19 109.74 266.77 109.81 267.32 109.96C267.8 110.09 268.29 110.26 268.81 110.47C268.95 110.53 269.01 110.69 268.95 110.82L268.35 112.28C268.29 112.42 268.14 112.48 268 112.42C267.48 112.21 267.05 112.07 266.69 111.98C266.28 111.88 265.88 111.83 265.48 111.83C265.01 111.83 264.65 111.94 264.4 112.16C264.15 112.38 264.02 112.67 264.02 113.03C264.02 113.25 264.07 113.44 264.17 113.61C264.27 113.77 264.43 113.93 264.66 114.09C264.88 114.24 265.41 114.52 266.24 114.92C267.34 115.45 268.09 115.98 268.49 116.51C268.9 117.04 269.1 117.69 269.1 118.47L269.12 118.46Z" fill="white"/>
<path d="M285.24 115.71C285.24 117.66 284.69 119.15 283.59 120.19C282.49 121.23 280.9 121.74 278.83 121.74H275.77C275.62 121.74 275.5 121.62 275.5 121.47V110.17C275.5 110.02 275.62 109.9 275.77 109.9H279.19C281.1 109.9 282.59 110.41 283.65 111.43C284.71 112.45 285.24 113.87 285.24 115.7V115.71ZM282.66 115.78C282.66 113.24 281.55 111.97 279.32 111.97H278.26C278.11 111.97 277.99 112.09 277.99 112.24V119.41C277.99 119.56 278.11 119.68 278.26 119.68H279.06C281.46 119.68 282.65 118.38 282.65 115.79L282.66 115.78Z" fill="white"/>
<path d="M294.16 121.74H287.94C287.79 121.74 287.67 121.62 287.67 121.47V110.17C287.67 110.02 287.79 109.9 287.94 109.9H294.16C294.31 109.9 294.43 110.02 294.43 110.17V111.69C294.43 111.84 294.31 111.96 294.16 111.96H290.42C290.27 111.96 290.15 112.08 290.15 112.23V114.29C290.15 114.44 290.27 114.56 290.42 114.56H293.86C294.01 114.56 294.13 114.68 294.13 114.83V116.35C294.13 116.5 294.01 116.62 293.86 116.62H290.42C290.27 116.62 290.15 116.74 290.15 116.89V119.41C290.15 119.56 290.27 119.68 290.42 119.68H294.16C294.31 119.68 294.43 119.8 294.43 119.95V121.49C294.43 121.64 294.31 121.76 294.16 121.76V121.74Z" fill="white"/>
<path d="M305.39 121.74H303.43C303.28 121.74 303.16 121.62 303.16 121.47V112.26C303.16 112.11 303.04 111.99 302.89 111.99H300.24C300.09 111.99 299.97 111.87 299.97 111.72V110.17C299.97 110.02 300.09 109.9 300.24 109.9H308.56C308.71 109.9 308.83 110.02 308.83 110.17V111.72C308.83 111.87 308.71 111.99 308.56 111.99H305.91C305.76 111.99 305.64 112.11 305.64 112.26V121.47C305.64 121.62 305.52 121.74 305.37 121.74H305.39Z" fill="white"/>
<path d="M317.13 121.74H310.91C310.76 121.74 310.64 121.62 310.64 121.47V110.17C310.64 110.02 310.76 109.9 310.91 109.9H317.13C317.28 109.9 317.4 110.02 317.4 110.17V111.69C317.4 111.84 317.28 111.96 317.13 111.96H313.39C313.24 111.96 313.12 112.08 313.12 112.23V114.29C313.12 114.44 313.24 114.56 313.39 114.56H316.83C316.98 114.56 317.1 114.68 317.1 114.83V116.35C317.1 116.5 316.98 116.62 316.83 116.62H313.39C313.24 116.62 313.12 116.74 313.12 116.89V119.41C313.12 119.56 313.24 119.68 313.39 119.68H317.13C317.28 119.68 317.4 119.8 317.4 119.95V121.49C317.4 121.64 317.28 121.76 317.13 121.76V121.74Z" fill="white"/>
<path d="M324.82 111.83C323.88 111.83 323.16 112.18 322.65 112.89C322.14 113.6 321.88 114.59 321.88 115.86C321.88 118.5 322.86 119.82 324.82 119.82C325.56 119.82 326.44 119.65 327.46 119.32C327.63 119.26 327.81 119.39 327.81 119.57V121.12C327.81 121.23 327.74 121.33 327.64 121.37C326.72 121.73 325.7 121.91 324.59 121.91C322.88 121.91 321.58 121.39 320.68 120.34C319.78 119.3 319.32 117.8 319.32 115.84C319.32 114.61 319.54 113.53 319.99 112.61C320.44 111.69 321.07 110.97 321.9 110.48C322.73 109.99 323.71 109.74 324.82 109.74C325.93 109.74 326.95 109.98 328.02 110.46C328.15 110.52 328.21 110.67 328.16 110.81L327.55 112.35C327.49 112.49 327.33 112.55 327.2 112.49C326.84 112.33 326.49 112.18 326.13 112.06C325.69 111.9 325.25 111.83 324.82 111.83Z" fill="white"/>
<path d="M340.45 121.74H337.71C337.62 121.74 337.53 121.69 337.48 121.61L332.46 112.79H332.39C332.49 114.37 332.54 115.5 332.54 116.17V121.47C332.54 121.62 332.42 121.74 332.27 121.74H330.58C330.43 121.74 330.31 121.62 330.31 121.47V110.17C330.31 110.02 330.43 109.9 330.58 109.9H333.3C333.39 109.9 333.48 109.95 333.53 110.03L338.55 118.76H338.61C338.53 117.22 338.49 116.13 338.49 115.5V110.17C338.49 110.02 338.61 109.9 338.76 109.9H340.47C340.62 109.9 340.74 110.02 340.74 110.17V121.47C340.74 121.62 340.62 121.74 340.47 121.74H340.45Z" fill="white"/>
<path d="M354.31 115.81C354.31 117.77 353.83 119.28 352.87 120.33C351.91 121.38 350.53 121.91 348.73 121.91C346.93 121.91 345.55 121.38 344.59 120.33C343.63 119.28 343.15 117.77 343.15 115.8C343.15 113.83 343.63 112.33 344.6 111.29C345.57 110.25 346.95 109.73 348.75 109.73C350.55 109.73 351.93 110.25 352.88 111.3C353.83 112.35 354.31 113.85 354.31 115.82V115.81ZM345.75 115.81C345.75 117.13 346 118.13 346.5 118.8C347 119.47 347.74 119.8 348.73 119.8C350.71 119.8 351.71 118.47 351.71 115.81C351.71 113.15 350.72 111.81 348.75 111.81C347.76 111.81 347.01 112.15 346.51 112.82C346.01 113.49 345.76 114.49 345.76 115.81H345.75Z" fill="white"/>
<path d="M356.74 121.48V110.18C356.74 110.03 356.86 109.91 357.01 109.91H358.97C359.12 109.91 359.24 110.03 359.24 110.18V119.41C359.24 119.56 359.36 119.68 359.51 119.68H363.74C363.89 119.68 364.01 119.8 364.01 119.95V121.49C364.01 121.64 363.89 121.76 363.74 121.76H357.03C356.88 121.76 356.76 121.64 356.76 121.49L356.74 121.48Z" fill="white"/>
<path d="M376.66 115.81C376.66 117.77 376.18 119.28 375.22 120.33C374.26 121.38 372.88 121.91 371.08 121.91C369.28 121.91 367.9 121.38 366.94 120.33C365.98 119.28 365.5 117.77 365.5 115.8C365.5 113.83 365.98 112.33 366.95 111.29C367.92 110.25 369.3 109.73 371.1 109.73C372.9 109.73 374.28 110.25 375.23 111.3C376.18 112.35 376.66 113.85 376.66 115.82V115.81ZM368.1 115.81C368.1 117.13 368.35 118.13 368.85 118.8C369.35 119.47 370.09 119.8 371.08 119.8C373.06 119.8 374.06 118.47 374.06 115.81C374.06 113.15 373.07 111.81 371.1 111.81C370.11 111.81 369.36 112.15 368.86 112.82C368.36 113.49 368.11 114.49 368.11 115.81H368.1Z" fill="white"/>
<path d="M383.8 115.1H387.92C388.07 115.1 388.19 115.22 388.19 115.37V121.04C388.19 121.16 388.11 121.26 388 121.3C387.32 121.52 386.67 121.67 386.06 121.76C385.39 121.86 384.71 121.91 384.02 121.91C382.25 121.91 380.9 121.38 379.97 120.34C379.04 119.29 378.57 117.78 378.57 115.82C378.57 113.86 379.11 112.42 380.19 111.35C381.27 110.28 382.77 109.75 384.69 109.75C385.8 109.75 386.88 109.96 387.92 110.37C388.06 110.43 388.12 110.59 388.07 110.73L387.45 112.23C387.39 112.37 387.23 112.43 387.1 112.37C386.32 112.02 385.51 111.84 384.68 111.84C383.61 111.84 382.74 112.2 382.1 112.93C381.45 113.66 381.13 114.64 381.13 115.87C381.13 117.1 381.39 118.14 381.91 118.81C382.43 119.49 383.19 119.83 384.18 119.83C384.63 119.83 385.08 119.79 385.54 119.71C385.67 119.69 385.76 119.57 385.76 119.44V117.46C385.76 117.31 385.64 117.19 385.49 117.19H383.8C383.65 117.19 383.53 117.07 383.53 116.92V115.37C383.53 115.22 383.65 115.1 383.8 115.1Z" fill="white"/>
<path d="M390.98 121.48V110.18C390.98 110.03 391.1 109.91 391.25 109.91H393.21C393.36 109.91 393.48 110.03 393.48 110.18V121.48C393.48 121.63 393.36 121.75 393.21 121.75H391.25C391.1 121.75 390.98 121.63 390.98 121.48Z" fill="white"/>
<path d="M403.54 121.55L402.8 119.11C402.77 119 402.66 118.92 402.55 118.92H398.67C398.55 118.92 398.45 119 398.42 119.11L397.68 121.55C397.65 121.66 397.54 121.74 397.43 121.74H395.32C395.14 121.74 395.01 121.56 395.07 121.38L399.02 110.03C399.06 109.92 399.16 109.85 399.27 109.85H401.93C402.04 109.85 402.14 109.92 402.18 110.03L406.15 121.38C406.21 121.55 406.08 121.74 405.9 121.74H403.79C403.67 121.74 403.57 121.66 403.54 121.55ZM401.79 116.82C401.97 116.82 402.09 116.64 402.04 116.47C401.32 114.14 400.92 112.81 400.82 112.49C400.72 112.16 400.65 111.89 400.61 111.7C400.44 112.36 399.97 113.95 399.2 116.47C399.15 116.64 399.27 116.82 399.45 116.82H401.79Z" fill="white"/>
<path d="M164.17 12.63V30.02C164.17 30.91 164.14 31.74 164.09 32.49C164 33.8 163.83 34.92 163.57 35.89C163.26 37.06 162.83 37.99 162.27 38.74C162.24 38.79 162.2 38.84 162.16 38.88C160.56 40.9 157.98 41.47 154.29 41.47H127.95C125.76 41.47 123.95 41.27 122.52 40.68C122.48 40.66 122.44 40.65 122.41 40.63C119.94 39.58 118.57 37.34 118.19 32.94C118.19 32.92 118.19 32.91 118.19 32.9C118.11 32.03 118.08 31.07 118.08 30.02V12.63C118.08 4.9 120.62 0.0999756 127.86 0.0999756H154.39C161.63 0.0999756 164.18 4.89001 164.18 12.63H164.17Z" fill="white"/>
<path d="M109.71 12.53V30.45C109.71 38.6 105.41 41.37 99.8899 41.37C99.8899 41.37 70.3699 41.42 68.4299 41.37C44.9199 40.78 46.5499 54.63 46.5499 69.09C46.5499 76.1 46.6 81.63 46.6 86C46.6 106.83 58.7799 110.46 60.6799 111.35C64.9299 113.22 72.0699 112.39 73.6399 112.61C76.1799 112.98 78.5399 113.37 78.5399 116.89V129.24C78.5399 130.58 78.1999 131.55 77.6399 132.26C77.5799 132.34 77.53 132.4 77.46 132.47C76.31 133.73 74.4299 134.11 72.6899 134.11H65.21C50.53 133.71 37.0299 128.59 26.1699 120.22C15.5599 112.05 7.47 100.77 3.25 87.75C1.14 81.24 0 74.29 0 67.07C0 50.31 6.13994 34.99 16.3099 23.23C26.2799 11.7 40.0999 3.61001 55.7699 0.950012C56.3799 0.840012 56.99 0.749973 57.61 0.659973C60.7 0.229973 63.8599 0 67.0699 0H99.3199C100.44 0 102.05 0.110027 102.95 0.340027C106.42 1.19003 108.35 3.62997 109.19 7.27997C109.55 8.81997 109.71 10.58 109.71 12.53Z" fill="white"/>
<path d="M97.21 68.12V54.01C97.21 51.66 99.12 49.75 101.47 49.75H159.97C162.32 49.75 164.23 51.66 164.23 54.01V87.99C164.23 103.51 168.64 134.12 135.51 134.12H91.1599C88.8099 134.12 86.8999 132.21 86.8999 129.86V116.87C86.8999 114.52 88.8099 112.61 91.1599 112.61L110.11 112.59C121.71 112.59 130.03 102.71 130.03 93.44C130.03 93.44 131.26 69.66 101.32 72.37C99.0399 72.58 97.21 70.41 97.21 68.11V68.12Z" fill="white"/>
</svg>
